<!-- filepath: c:\Users\JLOel\Desktop\OPT8-Frameworks\practica2\challenge_Plans\frontend\public\favicon.svg -->
<svg width="32" height="32" viewBox="0 0 32 32" fill="none" xmlns="http://www.w3.org/2000/svg">
  <path d="M16 0C7.163 0 0 7.163 0 16C0 24.837 7.163 32 16 32C24.837 32 32 24.837 32 16C32 7.163 24.837 0 16 0ZM8 10C8 8.895 8.895 8 10 8H14C15.105 8 16 8.895 16 10V14C16 15.105 15.105 16 14 16H10C8.895 16 8 15.105 8 14V10ZM24 22C24 23.105 23.105 24 22 24H18C16.895 24 16 23.105 16 22V18C16 16.895 16.895 16 18 16H22C23.105 16 24 16.895 24 18V22ZM24 14C24 15.105 23.105 16 22 16C20.895 16 20 15.105 20 14C20 12.895 20.895 12 22 12C23.105 12 24 12.895 24 14ZM12 22C12 20.895 11.105 20 10 20C8.895 20 8 20.895 8 22C8 23.105 8.895 24 10 24C11.105 24 12 23.105 12 22Z" fill="url(#paint0_linear)" />
  <defs>
    <linearGradient id="paint0_linear" x1="0" y1="0" x2="32" y2="32" gradientUnits="userSpaceOnUse">
      <stop stop-color="#4A6CF7" />
      <stop offset="1" stop-color="#2563EB" />
    </linearGradient>
  </defs>
</svg>